<svg xmlns="http://www.w3.org/2000/svg" width="18" height="21" viewBox="0 0 18 21" fill="none">
    <path
        d="M14.5062 6.8285C14.5062 5.39755 13.9377 4.02521 12.9259 3.01338C11.9141 2.00155 10.5417 1.43311 9.11078 1.43311C7.67984 1.43311 6.3075 2.00155 5.29567 3.01338C4.28384 4.02521 3.7154 5.39755 3.7154 6.8285C3.7154 13.1231 1.0177 14.9216 1.0177 14.9216H17.2039C17.2039 14.9216 14.5062 13.1231 14.5062 6.8285Z"
        stroke="white" stroke-width="1.54143" stroke-linecap="round" stroke-linejoin="round" />
    <path
        d="M10.6658 18.5186C10.5077 18.7911 10.2808 19.0173 10.0078 19.1746C9.73473 19.3318 9.42519 19.4146 9.11011 19.4146C8.79504 19.4146 8.4855 19.3318 8.21248 19.1746C7.93946 19.0173 7.71254 18.7911 7.55444 18.5186"
        stroke="white" stroke-width="1.54143" stroke-linecap="round" stroke-linejoin="round" />
</svg>