<svg xmlns="http://www.w3.org/2000/svg" width="18" height="16" viewBox="0 0 18 16" fill="none">
    <path d="M16.5947 1.85254V6.39427H12.4102" stroke="black" stroke-width="2"
        stroke-linecap="round" stroke-linejoin="round" />
    <path d="M1.25098 13.9626V9.4209H5.43554" stroke="black" stroke-width="2" stroke-linecap="round"
        stroke-linejoin="round" />
    <path
        d="M3.00152 5.63662C3.35523 4.55174 3.95639 3.58179 4.7489 2.81728C5.54141 2.05277 6.49944 1.51861 7.5336 1.26464C8.56776 1.01068 9.64434 1.04519 10.6629 1.36495C11.6814 1.68471 12.6088 2.27931 13.3583 3.09325L16.5944 6.39358M1.25098 9.4214L4.48704 12.7217C5.2366 13.5357 6.16391 14.1303 7.18246 14.45C8.20101 14.7698 9.27759 14.8043 10.3117 14.5503C11.3459 14.2964 12.3039 13.7622 13.0964 12.9977C13.889 12.2332 14.4901 11.2632 14.8438 10.1784"
        stroke="black" stroke-width="2" stroke-linecap="round" stroke-linejoin="round" />
</svg>