<svg xmlns="http://www.w3.org/2000/svg" width="39" height="38" viewBox="0 0 39 38" fill="none">
    <path
        d="M19.2666 0.755859C8.62746 0.755859 0.000244141 9.1794 0.000244141 19.5707C0.000244141 27.8837 5.52064 34.9362 13.1758 37.4241C14.1386 37.5982 14.4922 37.016 14.4922 36.519C14.4922 36.0704 14.4742 34.5881 14.4661 33.016C9.10601 34.1542 7.975 30.7961 7.975 30.7961C7.0986 28.6214 5.83584 28.0432 5.83584 28.0432C4.08788 26.8754 5.9676 26.8993 5.9676 26.8993C7.90232 27.0321 8.92105 28.8383 8.92105 28.8383C10.6394 31.7147 13.4282 30.883 14.5276 30.4024C14.7004 29.1862 15.1998 28.3563 15.7508 27.8865C11.4715 27.4106 6.97289 25.7973 6.97289 18.5881C6.97289 16.534 7.72553 14.8555 8.95808 13.5379C8.75802 13.064 8.0986 11.1504 9.14469 8.55876C9.14469 8.55876 10.7625 8.05306 14.4443 10.4874C15.981 10.0704 17.6293 9.86143 19.2666 9.85435C20.904 9.86143 22.5534 10.0704 24.0931 10.4874C27.7705 8.05306 29.3861 8.55876 29.3861 8.55876C30.4348 11.1504 29.7751 13.064 29.575 13.5379C30.8103 14.8555 31.5578 16.5339 31.5578 18.5881C31.5578 25.8144 27.0507 27.4057 22.7606 27.8714C23.4516 28.4553 24.0673 29.6004 24.0673 31.3557C24.0673 33.8731 24.0449 35.8992 24.0449 36.519C24.0449 37.0197 24.3917 37.6064 25.3685 37.4216C33.0194 34.9309 38.5328 27.8809 38.5328 19.5707C38.5328 9.1794 29.9068 0.755859 19.2666 0.755859Z"
        fill="#161614" />
    <path
        d="M7.21842 27.5583C7.17611 27.6517 7.02531 27.6797 6.88826 27.6157C6.74849 27.5543 6.66991 27.4268 6.71524 27.333C6.7568 27.2368 6.9076 27.2099 7.04707 27.2745C7.18714 27.3358 7.26692 27.4645 7.21842 27.5583ZM8.16613 28.3841C8.07426 28.4673 7.8946 28.4286 7.77266 28.2971C7.64664 28.166 7.62307 27.9907 7.7163 27.9061C7.81104 27.823 7.98526 27.8618 8.11159 27.9932C8.23761 28.1258 8.26208 28.3001 8.16598 28.3842M8.81633 29.4406C8.69817 29.5207 8.50506 29.4456 8.38584 29.2783C8.26783 29.1111 8.26783 28.9104 8.38841 28.83C8.50808 28.7496 8.69817 28.8219 8.81905 28.9879C8.93691 29.158 8.93691 29.3587 8.81618 29.4407M9.91575 30.6643C9.81013 30.7779 9.58529 30.7476 9.42059 30.5923C9.25226 30.4406 9.20527 30.2253 9.31119 30.1116C9.41802 29.9976 9.64422 30.0297 9.81013 30.1836C9.9774 30.335 10.0283 30.5519 9.91575 30.6643ZM11.3367 31.0775C11.2903 31.2248 11.0737 31.2918 10.8555 31.2292C10.6376 31.1647 10.4949 30.9921 10.5389 30.8432C10.5842 30.6949 10.8018 30.6251 11.0217 30.6921C11.2393 30.7563 11.3821 30.9276 11.3367 31.0775ZM12.9541 31.2527C12.9596 31.4079 12.7745 31.5366 12.5454 31.5394C12.315 31.5442 12.1287 31.4187 12.1262 31.2661C12.1262 31.1094 12.3071 30.9819 12.5374 30.9782C12.7665 30.9738 12.9541 31.0985 12.9541 31.2527ZM14.5428 31.1932C14.5703 31.3446 14.4111 31.5001 14.1837 31.5414C13.96 31.5813 13.753 31.4879 13.7245 31.3378C13.6966 31.1826 13.8589 31.0272 14.0821 30.9869C14.31 30.9482 14.5138 31.0393 14.5428 31.1932Z"
        fill="#161614" />
</svg>