<svg xmlns="http://www.w3.org/2000/svg" width="27" height="26" viewBox="0 0 27 26" fill="none">
    <path
        d="M13.9463 6.33393C10.2573 6.33393 7.28171 9.31016 7.28171 13C7.28171 16.6898 10.2573 19.6661 13.9463 19.6661C17.6353 19.6661 20.6109 16.6898 20.6109 13C20.6109 9.31016 17.6353 6.33393 13.9463 6.33393ZM13.9463 17.3338C11.5624 17.3338 9.61344 15.3903 9.61344 13C9.61344 10.6097 11.5566 8.66618 13.9463 8.66618C16.336 8.66618 18.2791 10.6097 18.2791 13C18.2791 15.3903 16.3302 17.3338 13.9463 17.3338ZM22.438 6.06125C22.438 6.92569 21.7419 7.61609 20.8835 7.61609C20.0192 7.61609 19.329 6.91989 19.329 6.06125C19.329 5.20261 20.025 4.50641 20.8835 4.50641C21.7419 4.50641 22.438 5.20261 22.438 6.06125ZM26.852 7.6393C26.7534 5.55651 26.2778 3.71159 24.7523 2.19157C23.2326 0.671538 21.3881 0.195805 19.3058 0.0913756C17.1597 -0.0304586 10.7271 -0.0304586 8.58098 0.0913756C6.50446 0.190003 4.65995 0.665737 3.13447 2.18576C1.60898 3.70579 1.13915 5.55071 1.03475 7.63349C0.912938 9.7801 0.912938 16.2141 1.03475 18.3607C1.13335 20.4435 1.60898 22.2884 3.13447 23.8084C4.65995 25.3285 6.49866 25.8042 8.58098 25.9086C10.7271 26.0305 17.1597 26.0305 19.3058 25.9086C21.3881 25.81 23.2326 25.3343 24.7523 23.8084C26.272 22.2884 26.7476 20.4435 26.852 18.3607C26.9738 16.2141 26.9738 9.7859 26.852 7.6393ZM24.0795 20.664C23.627 21.8011 22.7512 22.6771 21.6085 23.1354C19.8974 23.8142 15.8372 23.6576 13.9463 23.6576C12.0554 23.6576 7.98935 23.8084 6.28405 23.1354C5.14718 22.6829 4.27133 21.8069 3.81311 20.664C3.13447 18.9525 3.29108 14.8913 3.29108 13C3.29108 11.1087 3.14027 7.04173 3.81311 5.33605C4.26553 4.19893 5.14138 3.32288 6.28405 2.86455C7.99515 2.18576 12.0554 2.34241 13.9463 2.34241C15.8372 2.34241 19.9032 2.19157 21.6085 2.86455C22.7454 3.31708 23.6212 4.19313 24.0795 5.33605C24.7581 7.04753 24.6015 11.1087 24.6015 13C24.6015 14.8913 24.7581 18.9583 24.0795 20.664Z"
        fill="black" />
</svg>