<svg xmlns="http://www.w3.org/2000/svg" width="37" height="38" viewBox="0 0 37 38" fill="none">
    <path
        d="M18.5 37.7562C28.7174 37.7562 37.0002 29.4734 37.0002 19.256C37.0002 9.03866 28.7174 0.755859 18.5 0.755859C8.28268 0.755859 -0.00012207 9.03866 -0.00012207 19.256C-0.00012207 29.4734 8.28268 37.7562 18.5 37.7562Z"
        fill="black" />
    <path
        d="M29.5539 20.745V28.3722H25.1318V21.2562C25.1318 19.4694 24.4934 18.2492 22.8923 18.2492C21.6704 18.2492 20.9446 19.0707 20.624 19.8662C20.5076 20.1504 20.4776 20.5452 20.4776 20.9439V28.3719H16.0552C16.0552 28.3719 16.1146 16.3197 16.0552 15.0721H20.4779V16.9568C20.469 16.9717 20.4565 16.9862 20.4486 17.0003H20.4779V16.9568C21.0656 16.0526 22.1137 14.7598 24.4634 14.7598C27.3727 14.7598 29.5539 16.6607 29.5539 20.745ZM11.429 8.66113C9.91631 8.66113 8.92664 9.65411 8.92664 10.9587C8.92664 12.2356 9.88762 13.2573 11.371 13.2573H11.3997C12.9421 13.2573 13.9011 12.2356 13.9011 10.9587C13.8717 9.65411 12.9421 8.66113 11.429 8.66113ZM9.18947 28.3722H13.6102V15.0721H9.18947V28.3722Z"
        fill="#F1F2F2" />
</svg>