<svg xmlns="http://www.w3.org/2000/svg" width="1923" height="1958" viewBox="0 0 1923 1958"
    fill="none">
    <g filter="url(#filter0_dddddddd_1_4)">
        <path
            d="M754 1081L6 1H574L1066 721L1678 1H1846L1134 821L1918 1949H1346L826 1173L158 1949H6L754 1081Z"
            fill="black" />
        <path
            d="M754 1081L6 1H574L1066 721L1678 1H1846L1134 821L1918 1949H1346L826 1173L158 1949H6L754 1081Z"
            stroke="black" />
        <path
            d="M754 1081L6 1H574L1066 721L1678 1H1846L1134 821L1918 1949H1346L826 1173L158 1949H6L754 1081Z"
            stroke="black" stroke-opacity="0.2" />
        <path
            d="M754 1081L6 1H574L1066 721L1678 1H1846L1134 821L1918 1949H1346L826 1173L158 1949H6L754 1081Z"
            stroke="black" stroke-opacity="0.2" />
        <path
            d="M754 1081L6 1H574L1066 721L1678 1H1846L1134 821L1918 1949H1346L826 1173L158 1949H6L754 1081Z"
            stroke="black" stroke-opacity="0.2" />
        <path
            d="M754 1081L6 1H574L1066 721L1678 1H1846L1134 821L1918 1949H1346L826 1173L158 1949H6L754 1081Z"
            stroke="black" stroke-opacity="0.2" />
        <path
            d="M754 1081L6 1H574L1066 721L1678 1H1846L1134 821L1918 1949H1346L826 1173L158 1949H6L754 1081Z"
            stroke="black" stroke-opacity="0.2" />
        <path
            d="M754 1081L6 1H574L1066 721L1678 1H1846L1134 821L1918 1949H1346L826 1173L158 1949H6L754 1081Z"
            stroke="black" stroke-opacity="0.2" />
    </g>
    <defs>
        <filter id="filter0_dddddddd_1_4" x="0.90918" y="0.5" width="1922.05" height="1957"
            filterUnits="userSpaceOnUse" color-interpolation-filters="sRGB">
            <feFlood flood-opacity="0" result="BackgroundImageFix" />
            <feColorMatrix in="SourceAlpha" type="matrix"
                values="0 0 0 0 0 0 0 0 0 0 0 0 0 0 0 0 0 0 127 0" result="hardAlpha" />
            <feOffset dy="4" />
            <feGaussianBlur stdDeviation="2" />
            <feComposite in2="hardAlpha" operator="out" />
            <feColorMatrix type="matrix" values="0 0 0 0 0 0 0 0 0 0 0 0 0 0 0 0 0 0 0.25 0" />
            <feBlend mode="normal" in2="BackgroundImageFix" result="effect1_dropShadow_1_4" />
            <feColorMatrix in="SourceAlpha" type="matrix"
                values="0 0 0 0 0 0 0 0 0 0 0 0 0 0 0 0 0 0 127 0" result="hardAlpha" />
            <feOffset dy="4" />
            <feGaussianBlur stdDeviation="2" />
            <feComposite in2="hardAlpha" operator="out" />
            <feColorMatrix type="matrix" values="0 0 0 0 0 0 0 0 0 0 0 0 0 0 0 0 0 0 0.25 0" />
            <feBlend mode="normal" in2="effect1_dropShadow_1_4" result="effect2_dropShadow_1_4" />
            <feColorMatrix in="SourceAlpha" type="matrix"
                values="0 0 0 0 0 0 0 0 0 0 0 0 0 0 0 0 0 0 127 0" result="hardAlpha" />
            <feOffset dy="4" />
            <feGaussianBlur stdDeviation="2" />
            <feComposite in2="hardAlpha" operator="out" />
            <feColorMatrix type="matrix" values="0 0 0 0 0 0 0 0 0 0 0 0 0 0 0 0 0 0 0.25 0" />
            <feBlend mode="normal" in2="effect2_dropShadow_1_4" result="effect3_dropShadow_1_4" />
            <feColorMatrix in="SourceAlpha" type="matrix"
                values="0 0 0 0 0 0 0 0 0 0 0 0 0 0 0 0 0 0 127 0" result="hardAlpha" />
            <feOffset dy="4" />
            <feGaussianBlur stdDeviation="2" />
            <feComposite in2="hardAlpha" operator="out" />
            <feColorMatrix type="matrix" values="0 0 0 0 0 0 0 0 0 0 0 0 0 0 0 0 0 0 0.25 0" />
            <feBlend mode="normal" in2="effect3_dropShadow_1_4" result="effect4_dropShadow_1_4" />
            <feColorMatrix in="SourceAlpha" type="matrix"
                values="0 0 0 0 0 0 0 0 0 0 0 0 0 0 0 0 0 0 127 0" result="hardAlpha" />
            <feOffset dy="4" />
            <feGaussianBlur stdDeviation="2" />
            <feComposite in2="hardAlpha" operator="out" />
            <feColorMatrix type="matrix" values="0 0 0 0 0 0 0 0 0 0 0 0 0 0 0 0 0 0 0.25 0" />
            <feBlend mode="normal" in2="effect4_dropShadow_1_4" result="effect5_dropShadow_1_4" />
            <feColorMatrix in="SourceAlpha" type="matrix"
                values="0 0 0 0 0 0 0 0 0 0 0 0 0 0 0 0 0 0 127 0" result="hardAlpha" />
            <feOffset dy="4" />
            <feGaussianBlur stdDeviation="2" />
            <feComposite in2="hardAlpha" operator="out" />
            <feColorMatrix type="matrix" values="0 0 0 0 0 0 0 0 0 0 0 0 0 0 0 0 0 0 0.25 0" />
            <feBlend mode="normal" in2="effect5_dropShadow_1_4" result="effect6_dropShadow_1_4" />
            <feColorMatrix in="SourceAlpha" type="matrix"
                values="0 0 0 0 0 0 0 0 0 0 0 0 0 0 0 0 0 0 127 0" result="hardAlpha" />
            <feOffset dy="4" />
            <feGaussianBlur stdDeviation="2" />
            <feComposite in2="hardAlpha" operator="out" />
            <feColorMatrix type="matrix" values="0 0 0 0 0 0 0 0 0 0 0 0 0 0 0 0 0 0 0.25 0" />
            <feBlend mode="normal" in2="effect6_dropShadow_1_4" result="effect7_dropShadow_1_4" />
            <feColorMatrix in="SourceAlpha" type="matrix"
                values="0 0 0 0 0 0 0 0 0 0 0 0 0 0 0 0 0 0 127 0" result="hardAlpha" />
            <feOffset dy="4" />
            <feGaussianBlur stdDeviation="2" />
            <feComposite in2="hardAlpha" operator="out" />
            <feColorMatrix type="matrix" values="0 0 0 0 0 0 0 0 0 0 0 0 0 0 0 0 0 0 0.25 0" />
            <feBlend mode="normal" in2="effect7_dropShadow_1_4" result="effect8_dropShadow_1_4" />
            <feBlend mode="normal" in="SourceGraphic" in2="effect8_dropShadow_1_4" result="shape" />
        </filter>
    </defs>
</svg>