<svg width="15" height="16" viewBox="0 0 15 16" fill="none" xmlns="http://www.w3.org/2000/svg">
<path d="M0.816307 4.40885C2.0748 1.79554 4.65984 0 7.65306 0C9.71936 0 11.4456 0.791115 12.7721 2.08L10.6122 4.28446C10.0595 3.7422 9.09011 3.09331 7.65306 3.09331C5.62926 3.09331 3.91159 4.48889 3.29079 6.41777C3.13773 6.91554 3.04422 7.44885 3.04422 8C3.04422 8.55108 3.13773 9.08446 3.29929 9.58223C3.91159 11.5111 5.62926 12.9066 7.65306 12.9066C8.79249 12.9066 9.65986 12.5777 10.3061 12.1066C11.3265 11.36 11.7857 10.2489 11.8707 9.51108H7.65306V6.54223H14.8384C14.9489 7.04 15 7.52 15 8.17777C15 10.6133 14.1666 12.6667 12.7211 14.0622C11.454 15.2889 9.71936 16 7.65306 16C4.65984 16 2.0748 14.2044 0.816307 11.5911C0.297622 10.5066 0 9.28889 0 8C0 6.71111 0.297622 5.49331 0.816307 4.40885Z" fill="white"/>
</svg>